# Blender v2.79 (sub 0) OBJ File: 'moldura.blend'
# www.blender.org
o Cube.001
v 4.499998 0.100000 -4.499998
v 4.499998 0.100000 4.499998
v -4.499999 0.100000 4.499997
v -4.499997 0.100000 -4.500000
v 4.500000 0.400000 -4.499996
v 4.499995 0.400000 4.500001
v -4.500000 0.400000 4.499997
v -4.499998 0.400000 -4.499998
v 3.999998 0.100000 -3.999998
v 3.999998 0.100000 3.999998
v -3.999999 0.100000 3.999997
v -3.999997 0.100000 -4.000000
v 4.060000 0.400000 -4.059996
v 4.059995 0.400000 4.060000
v -4.059999 0.400000 4.059997
v -4.059998 0.400000 -4.059998
v 4.000000 0.310000 -3.999996
v 3.999995 0.310000 4.000000
v -4.000000 0.310000 3.999997
v -3.999998 0.310000 -3.999998
vn 0.0000 -1.0000 0.0000
vn 1.0000 0.0000 0.0000
vn -0.0000 -0.0000 1.0000
vn -1.0000 -0.0000 -0.0000
vn 0.0000 0.0000 -1.0000
vn 0.0000 1.0000 0.0000
vn -0.7071 0.0000 -0.7071
vn 0.7071 0.0000 -0.7071
vn 0.7071 0.0000 0.7071
vn 0.8320 0.5547 0.0000
vn -0.0000 0.5547 0.8321
vn 0.0000 0.5547 -0.8321
vn -0.8320 0.5547 -0.0000
s off
f 2//1 10//1 9//1 1//1
f 1//2 5//2 6//2 2//2
f 2//3 6//3 7//3 3//3
f 3//4 7//4 8//4 4//4
f 5//5 1//5 4//5 8//5
f 5//6 13//6 14//6 6//6
f 8//6 7//6 15//6 16//6
f 3//1 11//1 10//1 2//1
f 4//1 12//1 11//1 3//1
f 4//1 1//1 9//1 12//1
f 9//7 17//7 13//7 5//7 1//7
f 2//8 10//8 18//8 14//8 6//8
f 3//9 11//9 19//9 15//9 7//9
f 13//6 5//6 8//6 16//6
f 16//10 15//10 19//10 20//10
f 13//11 16//11 20//11 17//11
f 15//12 14//12 18//12 19//12
f 14//13 13//13 17//13 18//13
f 4//8 8//8 16//8 20//8 12//8
f 6//6 14//6 15//6 7//6
f 12//2 20//2 19//2 11//2
f 9//3 17//3 20//3 12//3
f 17//4 9//4 10//4 18//4
f 18//5 10//5 11//5 19//5
